<svg width="1208" height="1466" viewBox="0 0 1208 1466" fill="none" xmlns="http://www.w3.org/2000/svg">
<path d="M283.573 718.3C282.673 716.8 290.173 690.6 300.173 660C352.673 500.2 400.173 386.7 484.373 220.3C533.773 122.6 604.973 4 614.273 4C621.073 4 658.473 56.4 707.973 135.6C744.373 193.8 810.373 329.1 836.973 400.2C840.973 411 845.473 422.6 846.973 425.9C865.073 467.6 899.272 567.9 924.672 653.8C933.672 684.3 941.073 711.9 941.073 715C941.073 720.3 938.473 720.8 906.273 720.8C887.173 720.8 871.473 720.2 871.473 719.5C871.473 718.8 863.373 691.2 853.473 658.3C812.473 521.4 766.072 399 712.672 286.6C693.472 246.2 643.073 154.7 624.073 125.6L613.573 109.6L606.872 119.6C595.372 136.7 552.973 214.9 524.473 271.7C463.173 393.8 415.373 509.7 369.273 648.2L345.573 719.3L315.373 720.2C298.773 720.6 284.473 719.8 283.573 718.3ZM677.872 783.7C672.672 776.5 659.473 756 648.473 738.1C637.473 720.2 626.872 704.2 624.872 702.5C622.172 700.3 615.773 708.2 600.573 732.8C576.573 771.5 565.072 785.1 557.672 783.7C552.872 782.8 552.372 777.4 552.372 725.5V668.3L532.672 657.9C484.172 632.3 469.173 622.8 469.173 617.6C469.173 612.3 476.573 608.8 523.573 592.1C534.373 588.3 549.573 582.4 557.273 579.1L571.273 573.1L574.773 543.3C576.673 526.9 579.572 502 581.172 487.8C584.672 457.7 591.173 406.1 597.473 359.3C600.573 335.9 603.672 312.5 606.672 289.1C613.072 239.4 616.972 229.8 627.672 237.7C630.872 240 633.872 248.8 635.672 261C640.272 292 647.473 346.9 652.073 386.5C669.073 531.8 674.572 570.5 678.672 574.4C680.672 576.3 697.973 583.6 717.073 590.7C760.473 606.8 774.573 613.8 774.573 619.2C774.573 623.3 753.173 637.4 709.573 662.1C685.173 675.9 686.872 668.3 692.872 735.8C698.472 798.8 695.472 808.1 677.872 783.7ZM1051.67 1137.4C1049.37 1129.1 1043.87 1096.3 1041.97 1080.2L1039.97 1063L1055.67 1039.3C1076.57 1007.7 1104.97 949.6 1116.27 915C1121.37 899.6 1128.97 869.7 1133.27 848.5C1140.27 814.3 1141.07 802.8 1141.17 746.4C1141.17 689.6 1140.37 678.8 1133.27 644.5C1128.97 623.4 1122.67 597.3 1119.27 586.5C1083.37 470.4 1002.27 362.9 898.273 293.9C878.273 280.6 817.473 249.7 795.473 241.5C785.573 237.9 780.172 233.6 776.672 226.8C773.972 221.5 765.573 205.7 758.073 191.7C750.573 177.7 745.372 165.2 746.672 164C752.372 158.6 841.472 190.6 883.372 213.1C1037.97 296 1144.47 433.2 1188.87 606.8C1208.07 681.9 1209.37 800.4 1191.67 872.1C1186.97 891.2 1168.07 954.1 1164.87 961.3C1163.37 964.6 1156.47 980.3 1149.57 996.1C1132.87 1034.2 1109.17 1074 1081.27 1111C1059.17 1140.4 1053.87 1145.2 1051.67 1137.4ZM146.073 1133.4C122.973 1108.2 90.5725 1060 70.7725 1021.4C27.5725 937.2 8.47254 865.5 4.67254 774.3C0.17254 665.3 18.0725 577.4 63.8725 483.4C95.6725 418 131.073 369.8 186.873 315.4C244.773 259.1 301.573 221.1 369.473 193.3C380.273 188.9 391.873 184 395.173 182.5C416.573 172.8 492.673 153.5 496.073 156.9C497.073 157.9 490.373 173.2 481.273 191L464.673 223.3L432.873 234.1C275.573 287.8 143.373 420.6 91.6725 577.1C75.1725 627.2 63.9725 695.3 63.9725 746.4C63.9725 800.2 78.1725 881 95.8725 928.1C108.173 960.9 138.373 1018.3 159.673 1049.6C181.173 1081.2 182.673 1087.1 176.073 1114C174.673 1119.8 172.573 1131 171.473 1139C170.373 1146.9 168.373 1153.4 166.973 1153.4C165.473 1153.3 156.073 1144.3 146.073 1133.4ZM516.073 1340.8C474.873 1334.4 449.573 1328.3 414.173 1316.4C381.073 1305.2 342.173 1287.6 342.173 1283.8C342.173 1281.6 359.073 1261.3 378.473 1239.9C379.773 1238.5 392.873 1242.1 407.573 1248C438.773 1260.4 477.573 1271.5 515.973 1279C554.673 1286.5 653.372 1286.6 691.372 1279C776.872 1262.1 834.573 1238.7 903.073 1193.2C923.073 1179.9 940.472 1169.7 941.672 1170.4C944.472 1172.1 968.073 1218.4 968.073 1222.4C968.073 1227.5 909.673 1264.1 869.773 1284C829.773 1304 774.772 1324.2 736.672 1332.9C673.372 1347.5 580.373 1350.8 516.073 1340.8ZM165.573 1457C160.073 1442.8 166.973 1286 175.673 1225.9C177.273 1215.1 179.273 1198.8 180.273 1189.6C182.173 1172.1 189.173 1123.9 194.073 1095.8C204.673 1034.3 215.673 976.2 221.373 952.1C222.973 945.4 226.973 927.8 230.473 912.8C244.773 850.2 273.273 742.3 277.173 736.1C279.173 732.8 336.773 731.4 339.973 734.5C340.873 735.4 339.173 744 336.173 753.6C327.173 782.6 302.773 877 293.573 918.8C288.773 940.4 282.773 967.6 280.173 979.3C267.673 1035.2 251.373 1134.8 243.973 1200.1C241.573 1221.7 238.773 1242.8 237.973 1247C236.073 1256.1 237.773 1254.3 301.573 1181.9C419.673 1047.8 521.073 952.4 604.273 896.8C637.973 874.3 666.273 860 699.273 848.9C721.673 841.3 729.373 840.2 759.773 840.2C792.473 840.2 795.772 840.8 814.672 849.7C843.872 863.5 885.773 907.2 928.273 968.4C931.273 972.7 932.273 964.4 929.773 956C928.073 950.5 924.673 936.4 922.073 924.8C912.073 880.1 904.273 847.3 891.273 795.4C883.873 765.8 877.773 739.6 877.773 737.1C877.773 733.3 883.373 732.7 913.073 733.4L948.372 734.3L957.973 772.1C973.173 832.2 988.573 897.6 997.073 938.4C1001.37 959.2 1006.97 985.7 1009.47 997.4C1027.27 1080.5 1037.17 1138.5 1051.57 1245.4C1062.27 1324.8 1065.27 1380.7 1059.07 1384.6C1051.27 1389.4 1050.07 1387 1009.17 1281.7C958.972 1152.3 882.173 1017.4 824.273 956.5C793.873 924.5 781.572 918.4 754.172 921.5C708.672 926.6 642.472 963.8 569.172 1025.5C540.072 1050 413.973 1175.5 384.273 1209.6C322.373 1280.7 282.473 1328.5 234.873 1388.9C175.273 1464.3 170.273 1469.2 165.573 1457Z" fill="url(#paint0_linear_2:3)" stroke="#020202" stroke-opacity="0.14" stroke-width="6.8"/>
<defs>
<linearGradient id="paint0_linear_2:3" x1="604.076" y1="4" x2="604.076" y2="1462.11" gradientUnits="userSpaceOnUse">
<stop offset="0.109953" stop-color="#FFD12C" stop-opacity="0"/>
<stop offset="0.582501" stop-color="#E6C656"/>
</linearGradient>
</defs>
</svg>
